# xmcd
#
# Track frame offsets:
# 150
# 4518
# 22254
# 46764
# 63892
# 94991
# 114941
# 131007
# 158084
# 181325
# 204891
# 229010
# 255797
# 279677
# 307924
#
# Disc length: 4494 seconds
#
#
# Revision: 0
# Processed by: cddbd v1.5.2PL0 Copyright (c) Steve Scherf et al.
# Submitted via: FreeRIP 2.944 
#
DISCID=b5118c0f
DTITLE=KusKus - KusKus
DYEAR=1900
DGENRE=Blues
TTITLE0=Das Intro
TTITLE1=Empusa
TTITLE2=Ghost
TTITLE3=Aida
TTITLE4=Momo's Clock
TTITLE5=Fuck the Gap
TTITLE6=Eve's Garden
TTITLE7=Lost Song
TTITLE8=Golden Delicious
TTITLE9=Larry the Cherry
TTITLE10=The Machine
TTITLE11=Argo
TTITLE12=Styx
TTITLE13=AARGN
TTITLE14=Wüste
EXTD=
EXTT0=
EXTT1=
EXTT2=
EXTT3=
EXTT4=
EXTT5=
EXTT6=
EXTT7=
EXTT8=
EXTT9=
EXTT10=
EXTT11=
EXTT12=
EXTT13=
EXTT14=
PLAYORDER=
